<?xml version="1.0" ?>
<svg data-name="Layer 1" id="Layer_1" 
viewBox="0 0 73.84277 70.80615" 
xmlns="http://www.w3.org/2000/svg">
<defs><style>.cls-1{fill:none;}</style></defs><title/>
<path class="cls-1" d="M34.52344,48.06885v3.67773H37.2832V48.06885a.7502.7502,0,0,1,.75-.75h1.29688V44.80908H38.0332a.7502.7502,0,0,1-.75-.75V36.32959H34.52344v7.72949a.7502.7502,0,0,1-.75.75H29.55371a.75052.75052,0,0,1-.71875-.96533L34.9375,23.50684H31.99805L26.044,44.165v3.15381h7.72949A.7502.7502,0,0,1,34.52344,48.06885Z" 
transform="translate(-13.48926 -15.05225)"/>
<path class="cls-1" 
d="M85.832,58.5V20.78369a4.23651,4.23651,0,0,0-4.23144-4.23144H19.2207a4.23651,4.23651,0,0,0-4.23144,4.23144V58.5ZM59.79688,44.05908a.74514.74514,0,0,1,.02929-.20752l6.13965-21.30224a.75044.75044,0,0,1,.7207-.54248h4.51172a.75052.75052,0,0,1,.71875.96533L65.81445,43.30908h2.46192V35.57959a.75019.75019,0,0,1,.75-.75h4.25976a.75019.75019,0,0,1,.75.75v7.72949H75.333a.7502.7502,0,0,1,.75.75v4.00977a.7502.7502,0,0,1-.75.75H74.03613v3.67773a.75019.75019,0,0,1-.75.75H69.02637a.75019.75019,0,0,1-.75-.75V48.81885H60.54688a.75019.75019,0,0,1-.75-.75ZM43.21387,28.897a7.26115,7.26115,0,0,1,.58886-2.97949,7.02817,7.02817,0,0,1,1.56543-2.24219,6.77669,6.77669,0,0,1,2.27735-1.43115,7.572,7.572,0,0,1,5.33789,0,6.79548,6.79548,0,0,1,2.27441,1.43066A7.07053,7.07053,0,0,1,56.82617,25.917a7.29548,7.29548,0,0,1,.58692,2.98V46.35645a7.29045,7.29045,0,0,1-.58594,2.978,7.064,7.064,0,0,1-1.56934,2.24317,6.7901,6.7901,0,0,1-2.27441,1.43164,7.54815,7.54815,0,0,1-5.33887,0,6.78446,6.78446,0,0,1-2.27637-1.43213,7.01364,7.01364,0,0,1-1.56543-2.2417,7.25064,7.25064,0,0,1-.58886-2.979ZM24.544,44.05908a.74514.74514,0,0,1,.02929-.20752l6.13965-21.30224a.75044.75044,0,0,1,.7207-.54248h4.51172a.75051.75051,0,0,1,.71875.96533L30.56152,43.30908h2.46192V35.57959a.7502.7502,0,0,1,.75-.75H38.0332a.75019.75019,0,0,1,.75.75v7.72949h1.29688a.7502.7502,0,0,1,.75.75v4.00977a.7502.7502,0,0,1-.75.75H38.7832v3.67773a.75019.75019,0,0,1-.75.75H33.77344a.7502.7502,0,0,1-.75-.75V48.81885H25.294a.75019.75019,0,0,1-.75-.75Z" transform="translate(-13.48926 -15.05225)"/><path class="cls-1" d="M33.18652,81.16553a.50537.50537,0,0,0-.44531.37011l-.50586,2.72657.08008.09619H68.50586l.08008-.09619-.50586-2.727a.50551.50551,0,0,0-.44531-.36963H33.18652Z" 
transform="translate(-13.48926 -15.05225)"/>
<path class="cls-1" 
d="M69.77637,48.06885v3.67773h2.75976V48.06885a.7502.7502,0,0,1,.75-.75H74.583V44.80908H73.28613a.7502.7502,0,0,1-.75-.75V36.32959H69.77637v7.72949a.7502.7502,0,0,1-.75.75H64.80664a.75052.75052,0,0,1-.71875-.96533l6.10254-20.33691H67.251L61.29688,44.165v3.15381h7.72949A.7502.7502,0,0,1,69.77637,48.06885Z" transform="translate(-13.48926 -15.05225)"/><path class="cls-1" d="M50.31348,47.73682a1.25482,1.25482,0,0,0,.96484-.37744,1.353,1.353,0,0,0,.375-1.00293V28.897a1.3574,1.3574,0,0,0-.376-1.00488,1.42326,1.42326,0,0,0-1.92968.002,1.35819,1.35819,0,0,0-.37207,1.00293V46.35645a1.35187,1.35187,0,0,0,.373,1.00293A1.25486,1.25486,0,0,0,50.31348,47.73682Z" transform="translate(-13.48926 -15.05225)"/><path class="cls-1" d="M46.40234,50.49072a5.28475,5.28475,0,0,0,1.77735,1.11719,6.07207,6.07207,0,0,0,4.26855,0,5.29033,5.29033,0,0,0,1.77539-1.1167,5.55638,5.55638,0,0,0,1.2334-1.76855,5.79156,5.79156,0,0,0,.45606-2.36621V28.897a5.79537,5.79537,0,0,0-.457-2.36865,5.58088,5.58088,0,0,0-1.23242-1.76709,5.2994,5.2994,0,0,0-1.77539-1.11572,6.03378,6.03378,0,0,0-4.26758-.00049,5.28962,5.28962,0,0,0-1.77832,1.1167,5.555,5.555,0,0,0-1.23046,1.76709,5.788,5.788,0,0,0-.458,2.36816V46.35645a5.77833,5.77833,0,0,0,.458,2.36718A5.528,5.528,0,0,0,46.40234,50.49072ZM47.47559,28.897a2.8472,2.8472,0,0,1,.79394-2.0459,2.91927,2.91927,0,0,1,4.08594-.002,2.846,2.846,0,0,1,.79785,2.04785V46.35645a2.84143,2.84143,0,0,1-.79687,2.04589,2.918,2.918,0,0,1-4.08594,0,2.83986,2.83986,0,0,1-.79492-2.04589Z" transform="translate(-13.48926 -15.05225)"/><path class="cls-1" d="M14.98926,60v1.97217a4.23609,4.23609,0,0,0,4.23144,4.231H81.60059A4.23609,4.23609,0,0,0,85.832,61.97217V60Zm35.4209,4.75781a1.65625,1.65625,0,1,1,1.65625-1.65625A1.65834,1.65834,0,0,1,50.41016,64.75781Z" transform="translate(-13.48926 -15.05225)"/><polygon class="cls-1" points="28.262 64.613 45.581 64.613 42.758 52.651 31.084 52.651 28.262 64.613"/><circle class="cls-1" cx="36.9209" cy="48.04932" r="0.65625"/><path d="M81.60059,15.05225H19.2207a5.73816,5.73816,0,0,0-5.73144,5.73144V61.97217a5.73774,5.73774,0,0,0,5.73144,5.731H43.03192L40.21027,79.66553H33.18652a2.003,2.003,0,0,0-1.91992,1.59619l-.50586,2.72656a1.55176,1.55176,0,0,0,1.55469,1.87012H68.50586a1.55162,1.55162,0,0,0,1.55469-1.86963l-.50586-2.72754a2.00306,2.00306,0,0,0-1.91992-1.5957H60.6109L57.78851,67.70312H81.60059A5.73774,5.73774,0,0,0,87.332,61.97217V20.78369A5.73816,5.73816,0,0,0,81.60059,15.05225Zm-62.37989,1.5H81.60059A4.23651,4.23651,0,0,1,85.832,20.78369V58.5H14.98926V20.78369A4.23651,4.23651,0,0,1,19.2207,16.55225ZM67.63477,81.16553a.50551.50551,0,0,1,.44531.36963l.50586,2.727-.08008.09619H32.31543l-.08008-.09619.50586-2.72657a.50537.50537,0,0,1,.44531-.37011H67.63477Zm-8.56446-1.5H41.751l2.82226-11.96241H56.24707ZM81.60059,66.20312H19.2207a4.23609,4.23609,0,0,1-4.23144-4.23095V60H85.832v1.97217A4.23609,4.23609,0,0,1,81.60059,66.20312Z" transform="translate(-13.48926 -15.05225)"/><path d="M50.41016,61.44531a1.65625,1.65625,0,1,0,1.65625,1.65625A1.65835,1.65835,0,0,0,50.41016,61.44531Zm0,2.3125a.65625.65625,0,1,1,.65625-.65625A.65673.65673,0,0,1,50.41016,63.75781Z" transform="translate(-13.48926 -15.05225)"/><path d="M25.294,48.81885h7.72949v3.67773a.7502.7502,0,0,0,.75.75H38.0332a.75019.75019,0,0,0,.75-.75V48.81885h1.29688a.7502.7502,0,0,0,.75-.75V44.05908a.7502.7502,0,0,0-.75-.75H38.7832V35.57959a.75019.75019,0,0,0-.75-.75H33.77344a.7502.7502,0,0,0-.75.75v7.72949H30.56152l6.10254-20.33691a.75051.75051,0,0,0-.71875-.96533H31.43359a.75044.75044,0,0,0-.7207.54248L24.57324,43.85156a.74514.74514,0,0,0-.02929.20752v4.00977A.75019.75019,0,0,0,25.294,48.81885Zm.75-4.65381,5.9541-20.6582H34.9375L28.835,43.84375a.75052.75052,0,0,0,.71875.96533h4.21973a.7502.7502,0,0,0,.75-.75V36.32959H37.2832v7.72949a.7502.7502,0,0,0,.75.75h1.29688v2.50977H38.0332a.7502.7502,0,0,0-.75.75v3.67773H34.52344V48.06885a.7502.7502,0,0,0-.75-.75H26.044Z" transform="translate(-13.48926 -15.05225)"/><path d="M45.36816,51.57715a6.78446,6.78446,0,0,0,2.27637,1.43213,7.54815,7.54815,0,0,0,5.33887,0,6.7901,6.7901,0,0,0,2.27441-1.43164,7.064,7.064,0,0,0,1.56934-2.24317,7.29045,7.29045,0,0,0,.58594-2.978V28.897a7.29548,7.29548,0,0,0-.58692-2.98,7.07053,7.07053,0,0,0-1.56836-2.24219,6.79548,6.79548,0,0,0-2.27441-1.43066,7.572,7.572,0,0,0-5.33789,0,6.77669,6.77669,0,0,0-2.27735,1.43115,7.02817,7.02817,0,0,0-1.56543,2.24219,7.26115,7.26115,0,0,0-.58886,2.97949V46.35645a7.25064,7.25064,0,0,0,.58886,2.979A7.01364,7.01364,0,0,0,45.36816,51.57715ZM44.71387,28.897a5.788,5.788,0,0,1,.458-2.36816,5.555,5.555,0,0,1,1.23046-1.76709,5.28962,5.28962,0,0,1,1.77832-1.1167,6.03378,6.03378,0,0,1,4.26758.00049,5.2994,5.2994,0,0,1,1.77539,1.11572,5.58088,5.58088,0,0,1,1.23242,1.76709,5.79537,5.79537,0,0,1,.457,2.36865V46.35645a5.79156,5.79156,0,0,1-.45606,2.36621,5.55638,5.55638,0,0,1-1.2334,1.76855,5.29033,5.29033,0,0,1-1.77539,1.1167,6.07207,6.07207,0,0,1-4.26855,0,5.28475,5.28475,0,0,1-1.77735-1.11719,5.528,5.528,0,0,1-1.23046-1.76709,5.77833,5.77833,0,0,1-.458-2.36718Z" transform="translate(-13.48926 -15.05225)"/><path d="M50.31348,49.23682a2.73357,2.73357,0,0,0,2.043-.83448,2.84143,2.84143,0,0,0,.79687-2.04589V28.897a2.846,2.846,0,0,0-.79785-2.04785,2.91927,2.91927,0,0,0-4.08594.002,2.8472,2.8472,0,0,0-.79394,2.0459V46.35645a2.83986,2.83986,0,0,0,.79492,2.04589A2.73354,2.73354,0,0,0,50.31348,49.23682ZM48.97559,28.897a1.35819,1.35819,0,0,1,.37207-1.00293,1.42326,1.42326,0,0,1,1.92968-.002,1.3574,1.3574,0,0,1,.376,1.00488V46.35645a1.353,1.353,0,0,1-.375,1.00293,1.42193,1.42193,0,0,1-1.92969,0,1.35187,1.35187,0,0,1-.373-1.00293Z" transform="translate(-13.48926 -15.05225)"/><path d="M60.54688,48.81885h7.72949v3.67773a.75019.75019,0,0,0,.75.75h4.25976a.75019.75019,0,0,0,.75-.75V48.81885H75.333a.7502.7502,0,0,0,.75-.75V44.05908a.7502.7502,0,0,0-.75-.75H74.03613V35.57959a.75019.75019,0,0,0-.75-.75H69.02637a.75019.75019,0,0,0-.75.75v7.72949H65.81445L71.917,22.97217a.75052.75052,0,0,0-.71875-.96533H66.68652a.75044.75044,0,0,0-.7207.54248L59.82617,43.85156a.74514.74514,0,0,0-.02929.20752v4.00977A.75019.75019,0,0,0,60.54688,48.81885Zm.75-4.65381,5.9541-20.6582h2.93945L64.08789,43.84375a.75052.75052,0,0,0,.71875.96533h4.21973a.7502.7502,0,0,0,.75-.75V36.32959h2.75976v7.72949a.7502.7502,0,0,0,.75.75H74.583v2.50977H73.28613a.7502.7502,0,0,0-.75.75v3.67773H69.77637V48.06885a.7502.7502,0,0,0-.75-.75H61.29688Z" transform="translate(-13.48926 -15.05225)"/></svg>